<svg width="174" height="134" viewBox="0 0 174 134" fill="none" xmlns="http://www.w3.org/2000/svg">
<path d="M4.99988 87.5065H27.0263M32.8967 33.3844C35.3609 25.2831 44.5113 5 51.3236 5C59.4983 5 68.5814 23.4474 68.5814 23.4474L32.8967 33.3844ZM5.68111 70.0727L26.2694 76.2219L5.68111 70.0727ZM9.95772 106.75L27.0263 97.3722L9.95772 106.75Z" stroke="#FF9E00" stroke-width="10" stroke-linecap="round" stroke-linejoin="round"/>
<path d="M58.3631 78.3878C63.2239 78.3878 67.1644 74.87 67.1644 70.5306C67.1644 66.1911 63.2239 62.6733 58.3631 62.6733C53.5023 62.6733 49.5618 66.1911 49.5618 70.5306C49.5618 74.87 53.5023 78.3878 58.3631 78.3878Z" stroke="#FF9E00" stroke-width="10" stroke-linecap="round" stroke-linejoin="round"/>
<path d="M87 129H102.921C152.726 129 156.359 94.2638 156.359 81.2898V68.3496C156.359 26.4807 120.633 23.4512 100.646 23.4512H73.3544C53.3674 23.4512 17.6406 26.4769 17.6406 68.3496V81.2936C17.6406 94.2676 21.2739 129 71.0794 129H87Z" stroke="#FF9E00" stroke-width="10" stroke-linecap="round" stroke-linejoin="round"/>
<path d="M89.5903 89.4359L96.8231 80.8542C97.1863 80.4248 97.4081 79.9133 97.4634 79.3775C97.5187 78.8417 97.4053 78.3027 97.1361 77.8212C96.8669 77.3398 96.4525 76.935 95.9396 76.6524C95.4266 76.3698 94.8355 76.2206 94.2327 76.2217H79.7671C79.1644 76.2206 78.5732 76.3698 78.0603 76.6524C77.5473 76.935 77.1329 77.3398 76.8637 77.8212C76.5945 78.3027 76.4812 78.8417 76.5365 79.3775C76.5918 79.9133 76.8135 80.4248 77.1767 80.8542L84.4096 89.4359C84.7112 89.7949 85.1023 90.0863 85.5519 90.287C86.0015 90.4877 86.4973 90.5922 86.9999 90.5922C87.5026 90.5922 87.9984 90.4877 88.448 90.287C88.8976 90.0863 89.2887 89.7949 89.5903 89.4359V89.4359Z" stroke="#FF9E00" stroke-width="10" stroke-linecap="round" stroke-linejoin="round"/>
<path d="M169 87.5065H146.973M141.103 33.3844C138.639 25.2831 129.489 5 122.676 5C114.501 5 105.418 23.4474 105.418 23.4474L141.103 33.3844ZM168.319 70.0727L147.73 76.2219L168.319 70.0727ZM164.042 106.75L146.973 97.3722L164.042 106.75Z" stroke="#FF9E00" stroke-width="10" stroke-linecap="round" stroke-linejoin="round"/>
<path d="M115.637 78.3878C120.498 78.3878 124.438 74.87 124.438 70.5306C124.438 66.1911 120.498 62.6733 115.637 62.6733C110.776 62.6733 106.836 66.1911 106.836 70.5306C106.836 74.87 110.776 78.3878 115.637 78.3878Z" stroke="#FF9E00" stroke-width="10" stroke-linecap="round" stroke-linejoin="round"/>
</svg>
