<svg width="185" height="167" viewBox="0 0 185 167" fill="none" xmlns="http://www.w3.org/2000/svg">
<g filter="url(#filter0_d_7_312)">
<path d="M70.0018 92.1166C70.0018 93.4394 69.6248 94.7326 68.9184 95.8325C68.2121 96.9324 67.2082 97.7896 66.0336 98.2958C64.859 98.8021 63.5666 98.9345 62.3196 98.6764C61.0727 98.4184 59.9274 97.7814 59.0284 96.846C58.1294 95.9106 57.5172 94.7189 57.2691 93.4215C57.0211 92.124 57.1484 90.7792 57.6349 89.5571C58.1215 88.335 58.9454 87.2904 60.0025 86.5555C61.0595 85.8205 62.3024 85.4283 63.5737 85.4283C65.2785 85.4283 66.9135 86.1329 68.119 87.3872C69.3245 88.6415 70.0018 90.3428 70.0018 92.1166ZM121.426 98.805C122.698 98.805 123.94 98.4127 124.998 97.6778C126.055 96.9428 126.879 95.8983 127.365 94.6761C127.852 93.454 127.979 92.1092 127.731 90.8118C127.483 89.5144 126.871 88.3226 125.972 87.3872C125.073 86.4519 123.927 85.8149 122.68 85.5568C121.433 85.2987 120.141 85.4312 118.966 85.9374C117.792 86.4436 116.788 87.3009 116.082 88.4008C115.375 89.5007 114.998 90.7938 114.998 92.1166C114.998 93.8905 115.675 95.5917 116.881 96.846C118.086 98.1003 119.721 98.805 121.426 98.805ZM175.342 92.3674C173.379 93.313 171.167 93.5385 169.065 93.0071C166.964 92.4756 165.098 91.2186 163.771 89.4413L159.995 84.425V128.902C159.995 136.885 156.947 144.54 151.522 150.185C146.098 155.829 138.74 159 131.068 159H53.9316C46.2599 159 38.9024 155.829 33.4776 150.185C28.0529 144.54 25.0053 136.885 25.0053 128.902V84.425L21.2288 89.4413C19.9025 91.2186 18.0362 92.4756 15.9347 93.0071C13.8333 93.5385 11.6207 93.313 9.6583 92.3674C7.67701 91.4727 6.05223 89.8955 5.05717 87.9009C4.0621 85.9063 3.75745 83.6161 4.19444 81.4153L17.372 8.17797C17.6062 6.83049 18.1053 5.54784 18.838 4.41031C19.5706 3.27278 20.5211 2.30486 21.6298 1.56716C22.7386 0.82945 23.9818 0.337838 25.2815 0.123096C26.5813 -0.0916452 27.9097 -0.0248915 29.1836 0.319176L73.6176 11.8566H111.382L155.816 0.319176C157.09 -0.0248915 158.419 -0.0916452 159.718 0.123096C161.018 0.337838 162.261 0.82945 163.37 1.56716C164.479 2.30486 165.429 3.27278 166.162 4.41031C166.895 5.54784 167.394 6.83049 167.628 8.17797L180.806 81.4153C181.243 83.6161 180.938 85.9063 179.943 87.9009C178.948 89.8955 177.323 91.4727 175.342 92.3674ZM67.5912 17.2072L27.6569 6.7567H26.8534C26.2184 6.74457 25.5972 6.95022 25.0857 7.34193C24.727 7.58755 24.4207 7.90724 24.1857 8.28117C23.9507 8.6551 23.7921 9.07528 23.7197 9.51564L10.4618 82.5857C10.2949 83.3335 10.3803 84.1182 10.7037 84.8082C11.0271 85.4982 11.5688 86.0514 12.2378 86.3749C12.9069 86.6985 13.6625 86.7727 14.3779 86.5851C15.0934 86.3975 15.725 85.9595 16.1667 85.3447L67.5912 17.2072ZM153.567 75.981L110.258 18.5449H74.7425L31.4334 75.981V128.902C31.4545 135.104 33.8317 141.046 38.0463 145.431C42.261 149.816 47.9712 152.29 53.9316 152.312H89.286V137.012L77.394 124.555C76.9298 123.911 76.7045 123.114 76.7593 122.311C76.8142 121.509 77.1455 120.753 77.6926 120.184C78.2397 119.615 78.9657 119.27 79.7374 119.213C80.5092 119.156 81.2748 119.39 81.8937 119.873L92.5 130.825L103.106 119.873C103.725 119.39 104.491 119.156 105.263 119.213C106.034 119.27 106.76 119.615 107.307 120.184C107.854 120.753 108.186 121.509 108.241 122.311C108.296 123.114 108.07 123.911 107.606 124.555L95.714 137.012V152.312H131.068C137.029 152.29 142.739 149.816 146.954 145.431C151.168 141.046 153.545 135.104 153.567 128.902V75.981ZM174.538 82.5857L161.28 9.43203C161.208 8.99167 161.049 8.57149 160.814 8.19757C160.579 7.82364 160.273 7.50395 159.914 7.25833C159.147 6.76307 158.23 6.58414 157.343 6.7567L117.409 17.2072L168.833 85.3447C169.275 85.9595 169.907 86.3975 170.622 86.5851C171.337 86.7727 172.093 86.6985 172.762 86.3749C173.431 86.0514 173.973 85.4982 174.296 84.8082C174.62 84.1182 174.705 83.3335 174.538 82.5857Z" fill="#FF9E00"/>
</g>
<defs>
<filter id="filter0_d_7_312" x="0" y="0" width="185" height="167" filterUnits="userSpaceOnUse" color-interpolation-filters="sRGB">
<feFlood flood-opacity="0" result="BackgroundImageFix"/>
<feColorMatrix in="SourceAlpha" type="matrix" values="0 0 0 0 0 0 0 0 0 0 0 0 0 0 0 0 0 0 127 0" result="hardAlpha"/>
<feOffset dy="4"/>
<feGaussianBlur stdDeviation="2"/>
<feComposite in2="hardAlpha" operator="out"/>
<feColorMatrix type="matrix" values="0 0 0 0 0 0 0 0 0 0 0 0 0 0 0 0 0 0 0.25 0"/>
<feBlend mode="normal" in2="BackgroundImageFix" result="effect1_dropShadow_7_312"/>
<feBlend mode="normal" in="SourceGraphic" in2="effect1_dropShadow_7_312" result="shape"/>
</filter>
</defs>
</svg>
