<svg width="28" height="22" viewBox="0 0 28 22" fill="none" xmlns="http://www.w3.org/2000/svg">
<path d="M24.6909 5.61822C24.0364 5.61822 23.3967 5.79671 22.8525 6.1311C22.3083 6.46549 21.8842 6.94077 21.6337 7.49684C21.3832 8.05292 21.3177 8.6648 21.4454 9.25513C21.5731 9.84545 21.8882 10.3877 22.351 10.8133C22.8138 11.2389 23.4034 11.5287 24.0453 11.6462C24.6872 11.7636 25.3526 11.7033 25.9572 11.473C26.5619 11.2427 27.0787 10.8526 27.4423 10.3521C27.8059 9.85169 28 9.26332 28 8.66143C27.9966 7.85527 27.6469 7.08301 27.0271 6.51296C26.4072 5.94292 25.5675 5.62131 24.6909 5.61822ZM24.6909 10.3001C24.3385 10.3001 23.994 10.204 23.701 10.0239C23.408 9.84386 23.1796 9.58794 23.0447 9.28851C22.9099 8.98909 22.8746 8.65961 22.9433 8.34174C23.0121 8.02388 23.1818 7.7319 23.431 7.50273C23.6802 7.27356 23.9977 7.11749 24.3433 7.05427C24.6889 6.99104 25.0472 7.02349 25.3728 7.14751C25.6984 7.27154 25.9766 7.48157 26.1724 7.75104C26.3682 8.02052 26.4727 8.33733 26.4727 8.66143C26.4727 9.09602 26.285 9.51282 25.9508 9.82013C25.6167 10.1274 25.1635 10.3001 24.6909 10.3001ZM6.61818 8.66143C6.61818 8.05954 6.42411 7.47117 6.0605 6.97072C5.69689 6.47026 5.18008 6.08021 4.57543 5.84987C3.97077 5.61954 3.30542 5.55928 2.66352 5.6767C2.02162 5.79412 1.432 6.08396 0.969212 6.50956C0.506427 6.93516 0.191267 7.4774 0.0635847 8.06773C-0.0640973 8.65805 0.00143378 9.26994 0.251891 9.82601C0.502348 10.3821 0.926483 10.8574 1.47066 11.1918C2.01484 11.5262 2.65462 11.7046 3.30909 11.7046C4.18569 11.7015 5.02542 11.3799 5.64527 10.8099C6.26512 10.2398 6.61483 9.46759 6.61818 8.66143ZM3.30909 10.3001C2.95668 10.3001 2.61219 10.204 2.31917 10.0239C2.02615 9.84386 1.79777 9.58794 1.66291 9.28851C1.52805 8.98909 1.49276 8.65961 1.56151 8.34174C1.63026 8.02388 1.79996 7.7319 2.04916 7.50273C2.29835 7.27356 2.61584 7.11749 2.96148 7.05427C3.30712 6.99104 3.66538 7.02349 3.99096 7.14751C4.31655 7.27154 4.59483 7.48157 4.79062 7.75104C4.98641 8.02052 5.09091 8.33733 5.09091 8.66143C5.09091 9.09602 4.90318 9.51282 4.56903 9.82013C4.23487 10.1274 3.78166 10.3001 3.30909 10.3001ZM9.41818 6.08641C10.0727 6.08641 10.7124 5.90793 11.2566 5.57354C11.8008 5.23915 12.2249 4.76386 12.4754 4.20779C12.7258 3.65172 12.7914 3.03983 12.6637 2.44951C12.536 1.85918 12.2208 1.31693 11.7581 0.891335C11.2953 0.465735 10.7057 0.175898 10.0638 0.0584757C9.42185 -0.058947 8.75651 0.00131857 8.15185 0.231651C7.54719 0.461984 7.03038 0.85204 6.66677 1.35249C6.30317 1.85294 6.10909 2.44132 6.10909 3.04321C6.11244 3.84936 6.46216 4.62162 7.08201 5.19167C7.70186 5.76171 8.54159 6.08333 9.41818 6.08641ZM9.41818 1.40456C9.77059 1.40456 10.1151 1.50066 10.4081 1.68072C10.7011 1.86078 10.9295 2.1167 11.0644 2.41612C11.1992 2.71555 11.2345 3.04502 11.1658 3.36289C11.097 3.68076 10.9273 3.97274 10.6781 4.20191C10.4289 4.43107 10.1114 4.58714 9.7658 4.65037C9.42016 4.7136 9.0619 4.68114 8.73631 4.55712C8.41073 4.43309 8.13244 4.22306 7.93666 3.95359C7.74087 3.68412 7.63636 3.3673 7.63636 3.04321C7.63636 2.60861 7.82409 2.19181 8.15825 1.88451C8.4924 1.5772 8.94561 1.40456 9.41818 1.40456ZM18.5818 6.08641C19.2363 6.08641 19.8761 5.90793 20.4202 5.57354C20.9644 5.23915 21.3886 4.76386 21.639 4.20779C21.8895 3.65172 21.955 3.03983 21.8273 2.44951C21.6996 1.85918 21.3845 1.31693 20.9217 0.891335C20.4589 0.465735 19.8693 0.175898 19.2274 0.0584757C18.5855 -0.058947 17.9201 0.00131857 17.3155 0.231651C16.7108 0.461984 16.194 0.85204 15.8304 1.35249C15.4668 1.85294 15.2727 2.44132 15.2727 3.04321C15.2761 3.84936 15.6258 4.62162 16.2456 5.19167C16.8655 5.76171 17.7052 6.08333 18.5818 6.08641ZM18.5818 1.40456C18.9342 1.40456 19.2787 1.50066 19.5717 1.68072C19.8648 1.86078 20.0931 2.1167 20.228 2.41612C20.3629 2.71555 20.3981 3.04502 20.3294 3.36289C20.2606 3.68076 20.0909 3.97274 19.8418 4.20191C19.5926 4.43107 19.2751 4.58714 18.9294 4.65037C18.5838 4.7136 18.2255 4.68114 17.8999 4.55712C17.5744 4.43309 17.2961 4.22306 17.1003 3.95359C16.9045 3.68412 16.8 3.3673 16.8 3.04321C16.8 2.60861 16.9877 2.19181 17.3219 1.88451C17.656 1.5772 18.1093 1.40456 18.5818 1.40456ZM21.3945 13.6476C20.294 13.0871 19.4795 12.1486 19.1291 11.0375C18.8038 10.0182 18.1283 9.1233 17.2036 8.48668C16.279 7.85006 15.155 7.50599 14 7.50599C12.845 7.50599 11.721 7.85006 10.7964 8.48668C9.87173 9.1233 9.1962 10.0182 8.87091 11.0375C8.52049 12.1486 7.706 13.0871 6.60546 13.6476C5.5169 14.1937 4.69798 15.1034 4.31789 16.1888C3.93779 17.2743 4.02554 18.4525 4.56302 19.4802C5.1005 20.5078 6.04663 21.3063 7.20599 21.7108C8.36534 22.1153 9.64933 22.0948 10.7927 21.6536C11.8093 21.2653 12.8992 21.0654 14 21.0654C15.1008 21.0654 16.1907 21.2653 17.2073 21.6536C18.3507 22.0948 19.6347 22.1153 20.794 21.7108C21.9534 21.3063 22.8995 20.5078 23.437 19.4802C23.9745 18.4525 24.0622 17.2743 23.6821 16.1888C23.302 15.1034 22.4831 14.1937 21.3945 13.6476ZM19.0909 20.6002C18.6445 20.5999 18.2029 20.5163 17.7927 20.3544C16.5889 19.901 15.3009 19.6665 14 19.6638C12.6951 19.6676 11.4032 19.902 10.1945 20.3544C9.7893 20.5176 9.3515 20.6013 8.90909 20.6002C8.1722 20.5998 7.4565 20.3733 6.87546 19.9565C6.29441 19.5397 5.88127 18.9565 5.70151 18.2993C5.52176 17.6421 5.58568 16.9485 5.88315 16.3285C6.18061 15.7085 6.6946 15.1975 7.34364 14.8766C8.79701 14.1337 9.87211 12.8926 10.3345 11.4237C10.5659 10.6944 11.0482 10.0537 11.7091 9.5978C12.37 9.14194 13.1739 8.89552 14 8.89552C14.8261 8.89552 15.63 9.14194 16.2909 9.5978C16.9518 10.0537 17.4341 10.6944 17.6655 11.4237C18.1279 12.8926 19.203 14.1337 20.6564 14.8766H20.6691C21.3191 15.198 21.8336 15.71 22.1309 16.3312C22.4282 16.9524 22.4911 17.6471 22.3097 18.305C22.1283 18.9629 21.713 19.5461 21.1298 19.9619C20.5465 20.3778 19.8289 20.6025 19.0909 20.6002Z" fill="#240046"/>
</svg>
